<?xml version="1.0" encoding="UTF-8"?>
<svg width="800" height="500" viewBox="0 0 800 500" fill="none" xmlns="http://www.w3.org/2000/svg">
  <!-- Background -->
  <rect width="800" height="500" rx="12" fill="#FFFFFF"/>
  
  <!-- Header -->
  <rect x="24" y="24" width="752" height="64" rx="8" fill="#F5F5F5"/>
  <rect x="40" y="44" width="120" height="24" rx="4" fill="#58CC02"/>
  <rect x="600" y="44" width="160" height="24" rx="4" fill="#E5E5E5"/>
  
  <!-- Sidebar -->
  <rect x="24" y="104" width="200" height="372" rx="8" fill="#F5F5F5"/>
  <rect x="40" y="124" width="168" height="32" rx="4" fill="#58CC02"/>
  <rect x="40" y="172" width="168" height="32" rx="4" fill="#E5E5E5"/>
  <rect x="40" y="220" width="168" height="32" rx="4" fill="#E5E5E5"/>
  
  <!-- Main Content -->
  <rect x="248" y="104" width="528" height="180" rx="8" fill="#F5F5F5"/>
  <rect x="272" y="124" width="240" height="32" rx="4" fill="#58CC02"/>
  <rect x="272" y="172" width="480" height="88" rx="4" fill="#E5E5E5"/>
  
  <!-- Stats Cards -->
  <rect x="248" y="300" width="256" height="176" rx="8" fill="#F5F5F5"/>
  <rect x="520" y="300" width="256" height="176" rx="8" fill="#F5F5F5"/>
  
  <!-- Card Content -->
  <rect x="272" y="324" width="120" height="24" rx="4" fill="#58CC02"/>
  <rect x="272" y="364" width="208" height="88" rx="4" fill="#E5E5E5"/>
  
  <rect x="544" y="324" width="120" height="24" rx="4" fill="#58CC02"/>
  <rect x="544" y="364" width="208" height="88" rx="4" fill="#E5E5E5"/>
</svg> 