<svg version="1.1" id="Layer_1" xmlns="http://www.w3.org/2000/svg" xmlns:xlink="http://www.w3.org/1999/xlink" x="0px" y="0px" width="100%" viewBox="0 0 384 384" enable-background="new 0 0 384 384" xml:space="preserve">

<path fill="#58CC02" opacity="1.000000" stroke="none" d="
M62.171200,256.907349 
	C62.130520,248.228317 62.089840,239.549301 62.267487,230.024750 
	C62.382538,220.796356 62.279266,212.413483 62.175995,204.030609 
	C62.118618,164.789490 62.032955,125.548347 62.051304,86.307266 
	C62.052986,82.714729 62.504734,79.085281 63.117718,75.536934 
	C65.158119,63.725651 84.005844,45.796135 96.013397,47.978657 
	C155.287521,47.954990 213.663055,47.941757 272.038574,47.928528 
	C282.460144,47.226734 292.351898,59.030891 288.880341,70.225426 
	C288.361420,71.898827 287.585205,73.711006 286.385925,74.922180 
	C267.169464,94.328896 247.864914,113.648376 227.753189,133.817322 
	C223.073517,128.903351 218.754501,124.123962 214.170639,119.613747 
	C207.786087,113.331772 201.798569,106.425697 194.597794,101.233734 
	C169.389328,83.057739 137.426559,100.698959 133.757309,126.644287 
	C131.780975,140.618942 134.645920,152.427673 144.733047,162.333893 
	C151.107086,168.593613 157.556351,174.776703 163.971878,180.994171 
	C163.732803,181.468338 163.493729,181.942520 163.254654,182.416687 
	C161.879181,182.562775 160.501404,182.854584 159.128601,182.832687 
	C143.183884,182.578445 127.240677,182.201492 111.295219,182.041489 
	C107.361794,182.002014 103.196640,181.958878 99.563507,183.181671 
	C97.128235,184.001297 94.267204,186.781357 93.720932,189.170013 
	C93.041260,192.142014 94.258430,196.043289 98.638390,196.281326 
	C106.073555,196.685440 113.536552,197.127167 120.968773,196.907562 
	C132.197021,196.575775 143.408005,195.673325 154.628586,195.054092 
	C156.621658,194.944122 158.663467,195.283279 160.618713,194.989166 
	C177.160416,192.500900 187.971558,201.067001 196.749146,213.583115 
	C203.222015,222.812881 212.496582,227.074783 223.243652,229.133377 
	C241.357803,232.603119 254.581680,223.995270 266.540466,212.075623 
	C278.928345,199.728241 291.309601,187.373550 303.608002,174.937271 
	C309.591400,168.886810 315.379425,162.643112 321.676453,156.781204 
	C322.364136,159.872162 322.860626,162.668549 322.863739,165.465500 
	C322.908600,205.675629 322.867462,245.885880 322.921600,286.095978 
	C322.925598,289.046356 323.502899,291.995972 323.813629,294.945923 
	C324.049072,304.511505 324.888306,314.125183 320.338135,323.130737 
	C313.845673,335.980255 302.799011,342.650269 289.090729,342.745453 
	C225.353271,343.187958 161.609039,343.239044 97.871758,342.789795 
	C76.925499,342.642151 62.014828,325.746094 62.019337,306.363525 
	C62.021076,298.874664 62.035053,291.385773 62.261395,283.051086 
	C62.376625,273.772614 62.273914,265.339996 62.171200,256.907349 
M288.336029,237.455505 
	C287.023315,237.272644 285.710663,236.930176 284.397919,236.929840 
	C223.582703,236.913803 162.767471,236.910431 101.952415,237.013947 
	C99.961746,237.017334 97.972992,238.143890 95.361229,239.161102 
	C93.346184,241.936813 91.899826,244.707703 93.946663,248.220901 
	C95.899879,251.573410 98.748726,252.123062 102.344070,252.143707 
	C138.421707,252.350830 174.498077,252.774551 210.575699,252.989441 
	C233.716370,253.127274 256.858582,253.046494 279.999847,252.978897 
	C282.607574,252.971283 285.210144,252.376297 287.821320,252.116150 
	C291.864532,251.713318 294.442993,249.215164 294.682312,245.520203 
	C294.912231,241.969635 293.056396,238.868881 288.336029,237.455505 
M293.101013,304.132263 
	C296.105896,296.513367 293.680054,292.247986 285.608887,291.059052 
	C284.466461,290.890747 283.281616,290.999207 282.116394,290.999084 
	C223.511139,290.992920 164.905853,290.976715 106.300644,291.027924 
	C103.871651,291.030060 101.361481,291.387207 99.033432,292.070557 
	C95.429901,293.128326 92.686378,295.529816 93.090805,299.547394 
	C93.485336,303.466705 95.725655,306.398102 100.751030,307.463440 
	C106.387726,307.642700 112.024307,307.973450 117.661133,307.977753 
	C173.376129,308.020142 229.091187,308.012238 284.806213,308.002014 
	C287.917816,308.001434 291.307465,308.580872 293.101013,304.132263 
z" data-index="1" style="opacity: 1; visibility: visible; fill: rgb(88, 204, 2);"></path>
<path fill="#58CC02" opacity="1.000000" stroke="none" d="
M182.888702,178.007263 
	C182.888702,178.007263 182.448303,177.920013 182.073242,177.700958 
	C181.477295,177.286453 181.233871,177.124969 180.967911,176.997467 
	C180.967911,176.997467 181.016678,176.986542 180.958374,176.657333 
	C179.589462,175.220276 178.278854,174.112427 176.968246,173.004578 
	C176.968246,173.004578 177.011780,172.990524 176.955566,172.654114 
	C174.923553,170.542862 172.947739,168.768021 170.971939,166.993179 
	C170.627121,166.962814 170.358124,166.804016 169.979614,166.087585 
	C169.626175,165.403717 169.435242,165.167511 169.221436,164.949783 
	C169.221436,164.949783 169.085785,164.527756 168.923477,163.989929 
	C167.495346,162.634186 166.229538,161.816269 164.963715,160.998337 
	C164.963715,160.998337 165.016464,160.986938 164.966019,160.669586 
	C163.927170,159.242569 162.938751,158.132919 161.950333,157.023270 
	C150.423340,148.694122 145.753372,135.506058 150.017914,125.027428 
	C157.086166,107.659706 178.384460,105.018494 190.845673,117.501602 
	C202.500626,129.177063 214.188202,140.819992 225.870468,152.468155 
	C226.094696,152.691742 226.431015,152.802917 227.167572,153.227234 
	C232.354111,148.330109 237.744736,143.416580 242.936539,138.301270 
	C253.524612,127.869232 264.058533,117.380928 274.513885,106.815948 
	C282.894836,98.347160 291.078369,89.683266 299.438599,81.193687 
	C307.740265,72.763580 316.135010,64.424805 324.522156,56.079323 
	C333.864655,46.783211 347.567383,45.012173 358.073975,51.692020 
	C369.236725,58.789043 374.139679,72.214920 369.463806,84.497879 
	C368.041748,88.233536 365.491760,91.833237 362.649261,94.690254 
	C325.980042,131.547531 289.183441,168.278229 252.375320,204.997086 
	C239.471573,217.869568 222.174438,217.927948 209.497040,204.930267 
	C205.471161,200.802689 201.358383,196.759872 197.003784,192.108429 
	C196.134384,191.029709 195.546555,190.520828 194.958740,190.011963 
	C194.958740,190.011963 195.007812,189.990997 194.859055,189.813782 
	C194.492706,189.381470 194.238693,189.170135 193.948273,189.002563 
	C193.948273,189.002563 194.008026,188.991547 193.858795,188.817474 
	C193.491821,188.386490 193.237289,188.173553 192.945999,188.004608 
	C192.945999,188.004608 193.006165,187.994370 192.858826,187.819275 
	C192.496140,187.385696 192.243256,187.171524 191.952850,187.001648 
	C191.952850,187.001648 192.010544,186.989685 191.861282,186.814545 
	C191.495361,186.382645 191.241745,186.169983 190.951157,186.001419 
	C190.951157,186.001419 191.010056,185.990067 190.859161,185.815018 
	C190.452225,185.426376 190.196152,185.212769 189.940094,184.999176 
	C189.940094,184.999176 190.005661,184.992935 189.857391,184.822388 
	C189.458145,184.433228 189.207169,184.214584 188.956192,183.995956 
	C188.956192,183.995956 189.016495,183.988663 188.869156,183.813675 
	C188.508072,183.380554 188.255508,183.168732 187.964111,183.003235 
	C187.964111,183.003235 188.011490,182.987091 187.861923,182.810303 
	C187.497833,182.380768 187.247253,182.171082 186.960617,182.004471 
	C186.960617,182.004471 187.011749,181.989655 186.863068,181.811981 
	C186.499710,181.379013 186.246674,181.170197 185.955261,181.007858 
	C185.955261,181.007858 186.007645,180.992203 185.858337,180.814850 
	C185.493332,180.381836 185.239838,180.171799 184.948532,180.007370 
	C184.948532,180.007370 185.005783,179.994263 184.855988,179.817078 
	C184.449326,179.427338 184.192459,179.214767 183.935577,179.002197 
	C183.935577,179.002197 184.002075,178.994308 183.842804,178.825684 
	C183.418579,178.440460 183.153641,178.223862 182.888702,178.007263 
z" data-index="2" style="opacity: 1; visibility: visible; fill: rgb(88, 204, 2);"></path>
<path fill="#58CC02" opacity="1.000000" stroke="none" d="
M271.770081,47.595104 
	C213.663055,47.941757 155.287521,47.954990 96.444046,47.951691 
	C97.366669,47.631413 98.757019,47.063198 100.147835,47.062031 
	C156.440125,47.014866 212.732452,47.017834 269.024780,47.026554 
	C269.850372,47.026684 270.675964,47.179905 271.770081,47.595104 
z" data-index="3"></path>
<path fill="#58CC02" opacity="1.000000" stroke="none" d="
M323.889008,294.487671 
	C323.502899,291.995972 322.925598,289.046356 322.921600,286.095978 
	C322.867462,245.885880 322.908600,205.675629 322.863739,165.465500 
	C322.860626,162.668549 322.364136,159.872162 321.993103,156.687729 
	C322.578339,157.773499 323.853851,159.241745 323.867279,160.721420 
	C324.025543,178.195221 324.011719,195.670715 324.010406,213.145752 
	C324.008423,240.106979 323.981018,267.068207 323.889008,294.487671 
z" data-index="4"></path>
<path fill="#58CC02" opacity="1.000000" stroke="none" d="
M62.104568,257.381287 
	C62.273914,265.339996 62.376625,273.772614 62.322983,282.583588 
	C62.123730,274.593018 62.080833,266.224152 62.104568,257.381287 
z" data-index="5"></path>
<path fill="#58CC02" opacity="1.000000" stroke="none" d="
M62.108776,204.492523 
	C62.279266,212.413483 62.382538,220.796356 62.333351,229.555878 
	C62.134445,221.606506 62.088001,213.280487 62.108776,204.492523 
z" data-index="6"></path>
<path fill="#58CC02" opacity="1.000000" stroke="none" d="
M171.099152,167.300171 
	C172.947739,168.768021 174.923553,170.542862 176.947037,172.675323 
	C175.071915,171.224365 173.149139,169.415756 171.099152,167.300171 
z" data-index="7"></path>
<path fill="#58CC02" opacity="1.000000" stroke="none" d="
M177.083771,173.305756 
	C178.278854,174.112427 179.589462,175.220276 180.949478,176.680695 
	C179.732361,175.891144 178.465836,174.749023 177.083771,173.305756 
z" data-index="8"></path>
<path fill="#58CC02" opacity="1.000000" stroke="none" d="
M162.073410,157.324982 
	C162.938751,158.132919 163.927170,159.242569 164.957825,160.695282 
	C164.065536,159.901123 163.131012,158.763916 162.073410,157.324982 
z" data-index="9"></path>
<path fill="#58CC02" opacity="1.000000" stroke="none" d="
M165.115021,161.303833 
	C166.229538,161.816269 167.495346,162.634186 168.884521,163.771729 
	C167.760681,163.264008 166.513519,162.436661 165.115021,161.303833 
z" data-index="10"></path>
<path fill="#58CC02" opacity="1.000000" stroke="none" d="
M195.064545,190.291718 
	C195.546555,190.520828 196.134384,191.029709 196.850067,191.809113 
	C196.375412,191.576920 195.772888,191.074203 195.064545,190.291718 
z" data-index="11"></path>
<path fill="#58CC02" opacity="1.000000" stroke="none" d="
M190.029922,185.249664 
	C190.196152,185.212769 190.452225,185.426376 190.853943,185.844559 
	C190.706329,185.866135 190.413040,185.683136 190.029922,185.249664 
z" data-index="12"></path>
<path fill="#58CC02" opacity="1.000000" stroke="none" d="
M194.036194,189.251373 
	C194.238693,189.170135 194.492706,189.381470 194.853760,189.839935 
	C194.706192,189.862274 194.415146,189.681244 194.036194,189.251373 
z" data-index="13"></path>
<path fill="#58CC02" opacity="1.000000" stroke="none" d="
M193.024994,188.261169 
	C193.237289,188.173553 193.491821,188.386490 193.854019,188.847473 
	C193.700317,188.873611 193.402145,188.695679 193.024994,188.261169 
z" data-index="14"></path>
<path fill="#58CC02" opacity="1.000000" stroke="none" d="
M192.038361,187.252045 
	C192.243256,187.171524 192.496140,187.385696 192.853790,187.849365 
	C192.705338,187.870514 192.414597,187.686493 192.038361,187.252045 
z" data-index="15"></path>
<path fill="#58CC02" opacity="1.000000" stroke="none" d="
M191.037262,186.251740 
	C191.241745,186.169983 191.495361,186.382645 191.855438,186.843430 
	C191.707031,186.865646 191.415192,186.683853 191.037262,186.251740 
z" data-index="16"></path>
<path fill="#58CC02" opacity="1.000000" stroke="none" d="
M189.037552,184.250732 
	C189.207169,184.214584 189.458145,184.433228 189.855560,184.855286 
	C189.707642,184.874298 189.413269,184.689896 189.037552,184.250732 
z" data-index="17"></path>
<path fill="#58CC02" opacity="1.000000" stroke="none" d="
M188.059280,183.244812 
	C188.255508,183.168732 188.508072,183.380554 188.862915,183.843399 
	C188.720825,183.860870 188.437637,183.673630 188.059280,183.244812 
z" data-index="18"></path>
<path fill="#58CC02" opacity="1.000000" stroke="none" d="
M187.044434,182.252747 
	C187.247253,182.171082 187.497833,182.380768 187.854736,182.834274 
	C187.707489,182.857025 187.417862,182.679031 187.044434,182.252747 
z" data-index="19"></path>
<path fill="#58CC02" opacity="1.000000" stroke="none" d="
M186.046036,181.252045 
	C186.246674,181.170197 186.499710,181.379013 186.855377,181.837479 
	C186.709869,181.859161 186.423340,181.677689 186.046036,181.252045 
z" data-index="20"></path>
<path fill="#58CC02" opacity="1.000000" stroke="none" d="
M185.026917,180.261826 
	C185.239838,180.171799 185.493332,180.381836 185.850739,180.841125 
	C185.696732,180.868576 185.401001,180.692429 185.026917,180.261826 
z" data-index="21"></path>
<path fill="#58CC02" opacity="1.000000" stroke="none" d="
M184.020630,179.255981 
	C184.192459,179.214767 184.449326,179.427338 184.850006,179.845825 
	C184.697769,179.871094 184.401718,179.690430 184.020630,179.255981 
z" data-index="22"></path>
<path fill="#58CC02" opacity="1.000000" stroke="none" d="
M182.990234,178.260651 
	C183.153641,178.223862 183.418579,178.440460 183.842957,178.859161 
	C183.698853,178.878860 183.395309,178.696442 182.990234,178.260651 
z" data-index="23"></path>
<path fill="#58CC02" opacity="1.000000" stroke="none" d="
M181.046417,177.240753 
	C181.233871,177.124969 181.477295,177.286453 181.859650,177.631882 
	C181.722382,177.682587 181.423645,177.583313 181.046417,177.240753 
z" data-index="24"></path>
<path fill="#58CC02" opacity="1.000000" stroke="none" d="
M169.201660,165.211700 
	C169.435242,165.167511 169.626175,165.403717 169.902252,165.859497 
	C169.734146,165.864914 169.458023,165.669266 169.201660,165.211700 
z" data-index="25"></path>

<path fill="#58CC02" opacity="1.000000" stroke="none" d="
M289.095673,237.826080 
	C293.056396,238.868881 294.912231,241.969635 294.682312,245.520203 
	C294.442993,249.215164 291.864532,251.713318 287.821320,252.116150 
	C285.210144,252.376297 282.607574,252.971283 279.999847,252.978897 
	C256.858582,253.046494 233.716370,253.127274 210.575699,252.989441 
	C174.498077,252.774551 138.421707,252.350830 102.344070,252.143707 
	C98.748726,252.123062 95.899879,251.573410 93.946663,248.220901 
	C91.899826,244.707703 93.346184,241.936813 96.074593,238.839111 
	C99.415268,238.327759 102.042534,237.974136 104.669899,237.973465 
	C150.320984,237.961716 195.972061,238.011139 241.623154,238.005692 
	C257.447327,238.003799 273.271484,237.889206 289.095673,237.826080 
z" data-index="27" style="opacity: 1; visibility: hidden;"></path>
<path fill="#58CC02" opacity="1.000000" stroke="none" d="
M100.362534,307.320984 
	C107.460930,307.120239 114.947815,307.013641 122.434723,307.011322 
	C176.030762,306.994812 229.626877,307.031158 283.222656,306.913666 
	C286.230438,306.907074 289.235565,305.688751 292.633240,304.948761 
	C291.307465,308.580872 287.917816,308.001434 284.806213,308.002014 
	C229.091187,308.012238 173.376129,308.020142 117.661133,307.977753 
	C112.024307,307.973450 106.387726,307.642700 100.362534,307.320984 
z" data-index="28" style="opacity: 1;"></path>
<path fill="#58CC02" opacity="1.000000" stroke="none" d="
M288.715851,237.640793 
	C273.271484,237.889206 257.447327,238.003799 241.623154,238.005692 
	C195.972061,238.011139 150.320984,237.961716 104.669899,237.973465 
	C102.042534,237.974136 99.415268,238.327759 96.385651,238.632004 
	C97.972992,238.143890 99.961746,237.017334 101.952415,237.013947 
	C162.767471,236.910431 223.582703,236.913803 284.397919,236.929840 
	C285.710663,236.930176 287.023315,237.272644 288.715851,237.640793 
z" data-index="29"></path>
</svg>